<?xml version="1.0" standalone="no"?>
<!DOCTYPE svg PUBLIC "-//W3C//DTD SVG 20010904//EN"
 "http://www.w3.org/TR/2001/REC-SVG-20010904/DTD/svg10.dtd">
<svg version="1.0" xmlns="http://www.w3.org/2000/svg"
 width="512.000000pt" height="512.000000pt" viewBox="0 0 512.000000 512.000000"
 preserveAspectRatio="xMidYMid meet">

<g transform="translate(0.000000,512.000000) scale(0.100000,-0.100000)"
fill="#000000" stroke="none">
<path d="M3264 4779 c-4 -28 -12 -53 -19 -56 -7 -2 -16 -21 -20 -41 -3 -20
-12 -46 -19 -57 -8 -11 -17 -35 -21 -53 -4 -18 -13 -36 -20 -38 -8 -3 -16 -23
-20 -45 -4 -24 -12 -39 -21 -39 -8 0 -14 -9 -14 -20 0 -10 -8 -27 -19 -37 -10
-10 -22 -32 -25 -50 -4 -17 -14 -34 -22 -37 -8 -3 -14 -15 -14 -26 0 -45 -34
-196 -47 -205 -29 -22 -29 -435 0 -435 7 0 20 20 30 44 10 24 25 47 33 50 8 3
14 12 14 20 0 9 9 20 20 26 11 6 20 15 20 20 0 9 65 84 108 126 12 12 22 26
22 33 0 6 5 11 11 11 6 0 24 14 41 30 16 17 36 30 43 30 8 0 17 9 20 20 3 11
12 20 19 20 6 0 18 16 25 36 7 20 22 45 32 55 10 10 19 27 19 38 0 10 10 25
22 33 21 14 23 22 22 147 0 119 -2 134 -22 161 -12 16 -22 38 -22 49 0 11 -8
28 -18 38 -10 10 -24 37 -31 60 -6 24 -21 47 -31 53 -11 6 -20 15 -20 21 0 11
-54 69 -64 69 -3 0 -8 -23 -12 -51z"/>
<path d="M3870 4050 c0 -5 5 -10 10 -10 6 0 10 5 10 10 0 6 -4 10 -10 10 -5 0
-10 -4 -10 -10z"/>
<path d="M3900 4038 c0 -1 -1 -89 -3 -194 -2 -166 -4 -193 -19 -208 -10 -10
-18 -30 -18 -45 0 -16 -9 -40 -20 -54 -11 -14 -20 -32 -20 -41 0 -9 -7 -19
-15 -22 -8 -3 -20 -21 -27 -40 -6 -19 -17 -34 -23 -34 -5 0 -16 -13 -23 -30
-8 -16 -20 -30 -29 -30 -8 0 -17 -9 -20 -20 -3 -11 -11 -20 -19 -20 -7 0 -18
-9 -24 -20 -6 -11 -15 -20 -20 -20 -6 0 -19 -9 -30 -20 -11 -11 -29 -20 -41
-20 -12 0 -23 -8 -26 -19 -3 -12 -17 -21 -38 -25 -18 -4 -36 -13 -39 -21 -3
-8 -17 -15 -30 -15 -14 0 -29 -7 -34 -16 -6 -11 -34 -19 -88 -25 -43 -5 -90
-14 -104 -18 -14 -5 -81 -12 -149 -16 -94 -5 -132 -11 -160 -26 -19 -10 -48
-19 -64 -19 -48 0 -121 -23 -135 -42 -7 -10 -22 -18 -33 -18 -10 0 -19 -6 -19
-13 0 -7 -15 -19 -34 -25 -19 -7 -37 -19 -40 -27 -3 -8 -15 -15 -26 -15 -11 0
-20 -6 -20 -14 0 -7 -9 -16 -20 -19 -11 -3 -20 -12 -20 -21 0 -9 -5 -16 -10
-16 -14 0 -104 -90 -113 -113 -3 -9 -18 -22 -32 -27 -14 -5 -25 -16 -25 -25 0
-8 -5 -15 -10 -15 -6 0 -15 -11 -20 -25 -5 -14 -14 -25 -19 -25 -5 0 -15 -16
-22 -35 -7 -19 -19 -35 -26 -35 -7 0 -13 -8 -13 -18 0 -10 -9 -28 -20 -40 -11
-12 -20 -25 -20 -30 0 -5 -9 -20 -19 -34 -11 -13 -23 -36 -26 -51 -4 -14 -13
-28 -21 -31 -8 -3 -14 -13 -14 -22 0 -10 -7 -25 -16 -35 -17 -18 -43 -116 -44
-162 0 -15 -9 -47 -19 -70 -10 -23 -22 -70 -26 -104 -6 -53 -4 -64 9 -69 10
-4 25 1 36 11 13 12 45 20 97 25 43 4 92 15 108 24 17 9 50 16 75 16 25 0 56
7 68 16 14 9 78 23 162 34 96 12 144 23 155 34 9 9 26 16 38 16 12 1 40 9 62
20 22 11 52 19 67 20 15 0 33 6 40 14 8 7 38 19 67 25 29 6 59 18 67 26 9 8
24 15 35 15 11 0 22 6 25 14 3 8 22 17 42 21 20 4 51 15 68 26 17 10 41 19 53
19 12 0 24 7 27 15 3 8 21 17 40 21 19 3 38 12 42 19 4 6 30 20 57 31 28 10
56 24 63 31 7 7 24 16 38 19 13 3 24 12 24 19 0 7 16 16 35 19 21 4 35 13 35
21 0 8 11 17 25 21 14 3 25 12 25 20 0 8 6 14 13 14 19 0 77 50 77 66 0 8 7
14 15 14 8 0 19 9 25 20 6 11 17 20 24 20 8 0 16 9 19 20 3 11 12 20 21 20 9
0 16 7 16 15 0 8 16 22 36 31 20 9 40 28 45 41 4 12 13 23 19 23 6 0 16 12 23
28 6 15 17 31 24 35 7 4 13 13 13 19 0 6 8 20 17 30 21 23 43 84 43 120 0 17
8 31 20 38 14 7 20 21 20 45 0 18 8 41 17 50 13 13 19 46 25 141 9 136 -3 372
-19 382 -6 4 -14 23 -18 42 -4 19 -13 44 -20 56 -7 11 -21 52 -30 90 -9 38
-23 74 -30 80 -8 5 -17 22 -20 37 -4 15 -16 32 -26 38 -11 5 -19 16 -19 23 0
11 -12 20 -62 44 -5 2 -8 2 -8 0z"/>
<path d="M3236 3761 c-5 -7 -19 -17 -33 -22 -23 -8 -25 -14 -20 -46 10 -57 51
-71 93 -30 28 26 31 65 7 74 -10 4 -23 13 -29 21 -8 11 -13 12 -18 3z"/>
<path d="M2951 3500 c-13 -11 -32 -20 -42 -20 -11 0 -22 -7 -25 -15 -3 -8 -21
-19 -40 -25 -19 -6 -34 -18 -34 -26 0 -8 -9 -14 -20 -14 -11 0 -20 -7 -20 -15
0 -8 -20 -23 -44 -33 -30 -14 -45 -27 -50 -46 -3 -14 -15 -30 -26 -36 -21 -11
-27 -35 -11 -44 14 -9 41 4 41 19 0 7 19 16 45 19 27 5 45 12 45 20 0 8 17 16
39 20 22 3 41 11 43 17 2 6 39 18 83 28 l80 17 11 45 c12 45 4 87 -19 101 -18
12 -30 9 -56 -12z"/>
<path d="M4248 3344 c-5 -4 -8 -37 -8 -73 0 -87 -16 -195 -30 -199 -5 -2 -10
-14 -10 -26 0 -13 -8 -34 -19 -47 -10 -13 -22 -35 -26 -49 -4 -14 -16 -36 -26
-49 -11 -13 -19 -29 -19 -36 0 -7 -6 -15 -12 -18 -7 -2 -22 -30 -32 -61 -11
-31 -25 -56 -32 -56 -7 0 -16 -9 -19 -20 -3 -11 -13 -20 -21 -20 -8 0 -14 -4
-14 -9 0 -5 -9 -11 -20 -14 -11 -3 -20 -12 -20 -21 0 -9 -7 -16 -16 -16 -9 0
-18 -9 -21 -20 -3 -10 -14 -22 -24 -25 -10 -4 -19 -13 -19 -21 0 -8 -7 -14
-16 -14 -9 0 -18 -9 -21 -20 -3 -11 -14 -20 -24 -20 -11 0 -19 -7 -19 -15 0
-9 -11 -20 -25 -25 -14 -5 -25 -16 -25 -24 0 -8 -9 -18 -20 -21 -11 -3 -20
-11 -20 -16 0 -5 -11 -14 -25 -19 -14 -5 -25 -16 -25 -25 0 -8 -7 -15 -15 -15
-8 0 -24 -9 -35 -20 -11 -11 -29 -20 -39 -20 -11 0 -23 -4 -26 -10 -3 -5 -13
-10 -21 -10 -8 0 -23 -9 -34 -20 -11 -11 -29 -20 -40 -20 -10 0 -24 -9 -30
-20 -6 -11 -17 -20 -25 -20 -8 0 -19 -9 -25 -20 -6 -12 -21 -20 -35 -20 -14 0
-33 -9 -42 -20 -10 -11 -25 -20 -34 -20 -9 0 -28 -9 -42 -20 -14 -11 -34 -20
-45 -20 -10 0 -29 -9 -42 -20 -13 -11 -34 -20 -47 -20 -12 0 -32 -9 -43 -20
-11 -11 -28 -20 -38 -20 -10 0 -27 -7 -38 -14 -12 -8 -65 -22 -118 -31 -54 -8
-104 -22 -112 -30 -8 -8 -19 -47 -25 -87 -5 -40 -13 -92 -16 -116 -4 -27 -12
-46 -24 -53 -11 -5 -19 -18 -19 -29 0 -11 -9 -24 -20 -30 -11 -6 -20 -15 -20
-20 0 -14 27 -12 53 4 12 7 71 21 130 30 60 9 118 23 130 30 12 8 41 17 65 21
24 4 42 12 42 20 0 7 18 15 44 19 24 4 47 13 50 21 3 9 18 15 34 15 16 0 39 9
52 20 13 11 33 20 44 20 12 0 29 9 39 20 9 11 27 20 40 20 12 0 30 9 40 20 9
11 24 20 32 20 8 0 15 7 15 15 0 8 14 17 35 21 20 3 40 14 45 23 4 9 32 23 60
30 28 7 54 20 57 27 3 8 20 22 37 30 65 32 76 39 82 56 3 10 10 18 15 18 5 0
9 7 9 15 0 8 5 15 10 15 9 0 56 41 167 148 13 12 27 22 31 22 9 0 72 71 72 82
0 4 7 8 15 8 8 0 15 9 15 19 0 11 5 23 10 26 6 3 10 15 10 26 0 10 9 27 20 36
11 10 20 23 20 30 0 7 9 22 20 33 11 11 20 29 20 40 0 10 9 24 20 30 12 6 20
21 20 35 0 15 6 25 14 25 15 0 26 30 26 72 0 15 7 34 16 42 10 11 18 46 24
102 4 47 12 90 19 97 16 16 14 116 -4 185 -8 31 -18 81 -22 110 -4 30 -11 51
-15 46z"/>
<path d="M3610 1941 c0 -6 -13 -17 -30 -22 -23 -9 -30 -17 -29 -37 1 -54 17
-124 29 -132 7 -5 15 -33 18 -64 5 -62 7 -60 -92 -69 -31 -3 -52 -11 -58 -21
-5 -9 -18 -16 -29 -16 -11 0 -22 -7 -26 -16 -3 -8 -16 -20 -29 -25 -14 -5 -24
-17 -24 -29 0 -11 -6 -20 -12 -21 -7 0 -2 -5 11 -12 19 -9 25 -8 35 5 8 11 35
19 77 24 35 4 73 13 84 20 28 20 362 20 390 0 29 -19 145 -31 145 -14 0 22
-49 68 -73 68 -12 0 -33 7 -46 16 -17 12 -56 18 -144 23 l-122 6 -8 55 c-4 30
-13 69 -19 85 -6 17 -14 61 -18 98 -4 38 -12 73 -19 80 -8 8 -11 8 -11 -2z"/>
<path d="M2580 1913 c-14 -3 -28 -9 -31 -14 -3 -5 -34 -15 -70 -21 -35 -6 -71
-17 -79 -24 -8 -6 -34 -15 -57 -19 -23 -3 -44 -12 -46 -19 -3 -8 -30 -16 -63
-19 -32 -3 -60 -11 -62 -16 -2 -5 -19 -15 -38 -21 -19 -6 -34 -18 -34 -26 0
-8 -7 -14 -16 -14 -9 0 -18 -9 -21 -20 -3 -11 -12 -20 -19 -20 -8 0 -19 -10
-24 -22 -5 -13 -29 -43 -54 -67 -25 -25 -48 -53 -52 -63 -3 -10 -10 -18 -15
-18 -5 0 -14 -11 -19 -25 -5 -14 -16 -25 -25 -25 -8 0 -15 -7 -15 -15 0 -8 -9
-19 -20 -25 -11 -6 -20 -17 -20 -26 0 -8 -6 -17 -14 -20 -8 -3 -19 -17 -25
-32 -6 -15 -27 -37 -45 -50 -26 -18 -38 -35 -47 -73 -7 -28 -19 -49 -26 -49
-7 0 -18 -11 -23 -25 -5 -14 -14 -25 -19 -25 -5 0 -12 -14 -16 -30 -4 -17 -15
-35 -26 -40 -10 -6 -19 -17 -19 -24 0 -8 -7 -16 -15 -20 -8 -3 -15 -12 -15
-20 0 -9 -11 -23 -25 -32 -14 -9 -25 -23 -25 -30 0 -8 -6 -17 -14 -20 -8 -3
-17 -17 -21 -32 -3 -14 -15 -32 -26 -40 -10 -7 -19 -20 -19 -28 0 -8 -6 -17
-14 -20 -8 -3 -18 -19 -21 -36 -4 -16 -13 -32 -20 -34 -6 -3 -20 -32 -30 -65
-10 -33 -24 -59 -31 -59 -8 0 -16 -11 -20 -24 -3 -14 -12 -27 -20 -30 -8 -3
-14 -12 -14 -19 0 -8 -7 -20 -16 -27 -8 -8 -21 -28 -29 -47 -8 -18 -18 -33
-23 -33 -6 0 -13 -16 -16 -35 -4 -21 -13 -35 -21 -35 -8 0 -15 -9 -15 -20 0
-10 -6 -23 -13 -27 -7 -4 -18 -20 -24 -35 -7 -16 -19 -28 -28 -28 -9 0 -15 -9
-15 -25 0 -13 -9 -33 -21 -44 -12 -11 -18 -25 -14 -31 9 -15 57 -4 68 16 4 8
23 14 40 14 20 0 39 8 50 20 9 11 27 20 40 20 12 0 30 9 40 20 9 11 26 20 37
20 23 0 70 27 83 47 4 7 17 13 27 13 11 0 20 4 20 10 0 5 15 17 33 26 17 9 36
23 40 30 4 8 16 14 26 14 10 0 21 9 24 20 3 11 12 20 21 20 9 0 16 7 16 15 0
8 6 15 14 15 8 0 21 8 28 18 7 9 25 23 40 31 14 7 34 28 44 46 10 19 31 38 51
46 18 7 35 21 39 31 3 10 11 18 19 18 8 0 17 9 20 20 3 11 13 20 21 20 8 0 14
7 14 16 0 9 9 18 20 21 11 3 20 10 20 17 0 6 20 31 45 56 24 25 44 50 45 57 0
7 9 17 19 23 11 5 22 24 26 41 4 17 14 33 23 37 23 8 72 63 72 80 0 7 7 15 15
18 8 4 15 12 15 20 0 7 9 18 20 24 11 6 20 17 20 24 0 7 9 21 19 30 11 10 22
28 25 42 4 13 13 24 21 24 8 0 15 8 15 18 0 17 54 82 69 82 4 0 13 24 20 53 8
28 22 60 32 70 11 10 19 26 19 37 0 11 9 24 20 30 11 6 20 20 20 30 0 11 9 28
20 37 11 10 20 25 20 35 0 9 9 22 20 28 11 6 20 20 20 31 0 11 7 22 15 25 8 3
17 21 21 40 3 19 12 34 20 34 8 0 16 16 20 40 4 22 12 40 19 40 7 0 15 14 19
31 6 31 1 50 -12 48 -4 -1 -18 -4 -32 -6z"/>
</g>
</svg>
